<svg width="24" height="24" viewBox="0 0 24 24" fill="none" xmlns="http://www.w3.org/2000/svg">
<mask id="mask0_267_7096" style="mask-type:alpha" maskUnits="userSpaceOnUse" x="2" y="2" width="20" height="20">
<path d="M2.8334 10.3323C2.61237 10.3323 2.40039 10.2445 2.2441 10.0882C2.0878 9.93194 2 9.71996 2 9.49893V2.83337C2 2.61234 2.0878 2.40036 2.2441 2.24407C2.40039 2.08777 2.61237 1.99997 2.8334 1.99997H9.50063C9.72166 1.99997 9.93364 2.08777 10.0899 2.24407C10.2462 2.40036 10.334 2.61234 10.334 2.83337V9.49893C10.334 9.71996 10.2462 9.93194 10.0899 10.0882C9.93364 10.2445 9.72166 10.3323 9.50063 10.3323H2.8334ZM14.501 10.3323C14.28 10.3323 14.068 10.2445 13.9117 10.0882C13.7554 9.93194 13.6676 9.71996 13.6676 9.49893V2.83337C13.6676 2.61234 13.7554 2.40036 13.9117 2.24407C14.068 2.08777 14.28 1.99997 14.501 1.99997H21.1666C21.3876 1.99997 21.5996 2.08777 21.7559 2.24407C21.9122 2.40036 22 2.61234 22 2.83337V9.49893C22 9.71996 21.9122 9.93194 21.7559 10.0882C21.5996 10.2445 21.3876 10.3323 21.1666 10.3323H14.501ZM2.8334 22C2.61237 22 2.40039 21.9122 2.2441 21.7559C2.0878 21.5996 2 21.3876 2 21.1666V14.4993C2 14.2783 2.0878 14.0663 2.2441 13.91C2.40039 13.7537 2.61237 13.6659 2.8334 13.6659H9.50063C9.72166 13.6659 9.93364 13.7537 10.0899 13.91C10.2462 14.0663 10.334 14.2783 10.334 14.4993V21.1666C10.334 21.3876 10.2462 21.5996 10.0899 21.7559C9.93364 21.9122 9.72166 22 9.50063 22H2.8334ZM14.501 22C14.28 22 14.068 21.9122 13.9117 21.7559C13.7554 21.5996 13.6676 21.3876 13.6676 21.1666V14.4993C13.6676 14.2783 13.7554 14.0663 13.9117 13.91C14.068 13.7537 14.28 13.6659 14.501 13.6659H21.1666C21.3876 13.6659 21.5996 13.7537 21.7559 13.91C21.9122 14.0663 22 14.2783 22 14.4993V21.1666C22 21.3876 21.9122 21.5996 21.7559 21.7559C21.5996 21.9122 21.3876 22 21.1666 22H14.501Z" fill="currentColor"/>
</mask>
<g mask="url(#mask0_267_7096)">
<rect y="-0.00109863" width="24" height="24" fill="currentColor"/>
</g>
</svg>
