<svg width="24" height="24" viewBox="0 0 24 24" fill="none" xmlns="http://www.w3.org/2000/svg">
<mask id="mask0_156_1578" style="mask-type:alpha" maskUnits="userSpaceOnUse" x="1" y="1" width="22" height="22">
<circle cx="12" cy="12" r="11" fill="#D9D9D9"/>
</mask>
<g mask="url(#mask0_156_1578)">
<rect width="24" height="24" fill="currentColor"/>
</g>
<path d="M9.33497 7.82121C8.91699 7.40322 8.23929 7.40322 7.8213 7.82121C7.40332 8.2392 7.40332 8.91689 7.8213 9.33488L10.4864 12L7.8213 14.6651C7.40332 15.0831 7.40332 15.7608 7.8213 16.1788C8.23929 16.5968 8.91699 16.5968 9.33497 16.1788L12.0001 13.5137L14.6652 16.1788C15.0832 16.5968 15.7609 16.5968 16.1789 16.1788C16.5969 15.7608 16.5969 15.0831 16.1789 14.6651L13.5138 12L16.1789 9.33488C16.5969 8.91689 16.5969 8.2392 16.1789 7.82121C15.7609 7.40322 15.0832 7.40322 14.6652 7.82121L12.0001 10.4863L9.33497 7.82121Z" fill="black"/>
</svg>
