<svg width="24" height="24" viewBox="0 0 24 24" fill="none" xmlns="http://www.w3.org/2000/svg">
<mask id="mask0_101_305" style="mask-type:alpha" maskUnits="userSpaceOnUse" x="2" y="0" width="20" height="25">
<path d="M18.0001 6C18.0001 9.31371 15.3138 12 12.0001 12C8.68634 12 6.00005 9.31371 6.00005 6C6.00005 2.68629 8.68634 0 12.0001 0C15.3138 0 18.0001 2.68629 18.0001 6Z" fill="currentColor"/>
<path d="M2 20.0005C2 16.6868 4.68629 14.0005 8 14.0005H16C19.3137 14.0005 22 16.6868 22 20.0005V21.0005C22 22.6574 20.6569 24.0005 19 24.0005H5C3.34315 24.0005 2 22.6574 2 21.0005V20.0005Z" fill="currentColor"/>
</mask>
<g mask="url(#mask0_101_305)">
<rect y="-0.00109863" width="24" height="24" fill="currentColor"/>
</g>
</svg>
