<svg width="24" height="24" viewBox="0 0 24 24" fill="none" xmlns="http://www.w3.org/2000/svg">
<mask id="mask0_216_6041" style="mask-type:alpha" maskUnits="userSpaceOnUse" x="2" y="0" width="20" height="24">
<path fill-rule="evenodd" clip-rule="evenodd" d="M8.66885 1.33735C9.56468 0.4946 10.7642 0.0334167 12.0002 0.0334167C13.2362 0.0334167 14.4358 0.4946 15.3316 1.33735C16.23 2.18253 16.7502 3.34575 16.7502 4.57601V10.315C16.7502 11.0054 16.1906 11.565 15.5002 11.565C14.8099 11.565 14.2502 11.0054 14.2502 10.315V4.57601C14.2502 4.05978 14.0329 3.54802 13.6186 3.15824C13.2017 2.76603 12.6208 2.53342 12.0002 2.53342C11.3797 2.53342 10.7988 2.76603 10.3818 3.15824C9.96751 3.54802 9.75022 4.05978 9.75022 4.57601V10.315C9.75022 11.0054 9.19057 11.565 8.50022 11.565C7.80986 11.565 7.25022 11.0054 7.25022 10.315V4.57601C7.25022 3.34575 7.77042 2.18253 8.66885 1.33735Z" fill="#006FFD"/>
<path d="M6.11496 7.2306C4.41014 7.2306 2.99507 8.54792 2.87326 10.2484L2.15691 20.2484C2.02213 22.1299 3.51223 23.7306 5.39861 23.7306H18.6018C20.4882 23.7306 21.9783 22.1299 21.8435 20.2484L21.1272 10.2484C21.0053 8.54792 19.5903 7.2306 17.8855 7.2306H6.11496Z" fill="currentColor"/>
</mask>
<g mask="url(#mask0_216_6041)">
<rect width="24" height="24" fill="currentColor"/>
</g>
</svg>
